<?xml version="1.0" encoding="UTF-8"?>
<svg width="200px" height="200px" viewBox="0 0 200 200" version="1.1" xmlns="http://www.w3.org/2000/svg" xmlns:xlink="http://www.w3.org/1999/xlink">
    <title>Boş Sohbet</title>
    <g id="Chat-Empty" stroke="none" stroke-width="1" fill="none" fill-rule="evenodd">
        <g id="Chat-Bubble" transform="translate(25, 25)" fill-rule="nonzero">
            <path d="M135,0 C144.389,0 150,5.611 150,15 L150,15 L150,90 C150,99.389 144.389,105 135,105 L135,105 L90,105 L75,120 L60,105 L15,105 C5.611,105 0,99.389 0,90 L0,90 L0,15 C0,5.611 5.611,0 15,0 L15,0 Z" id="Shape" fill="#FFE0D0" opacity="0.5"></path>
            <path d="M120,30 C124.418,30 128,33.582 128,38 C128,42.418 124.418,46 120,46 C115.582,46 112,42.418 112,38 C112,33.582 115.582,30 120,30 Z M75,30 C79.418,30 83,33.582 83,38 C83,42.418 79.418,46 75,46 C70.582,46 67,42.418 67,38 C67,33.582 70.582,30 75,30 Z M30,30 C34.418,30 38,33.582 38,38 C38,42.418 34.418,46 30,46 C25.582,46 22,42.418 22,38 C22,33.582 25.582,30 30,30 Z" id="Combined-Shape" fill="#FF8B5E"></path>
        </g>
        <g id="Chat-Bubble-2" transform="translate(50, 75)" fill-rule="nonzero">
            <path d="M90,0 C96.075,0 100,3.925 100,10 L100,10 L100,60 C100,66.075 96.075,70 90,70 L90,70 L60,70 L50,80 L40,70 L10,70 C3.925,70 0,66.075 0,60 L0,60 L0,10 C0,3.925 3.925,0 10,0 L10,0 Z" id="Shape" fill="#FFB996" opacity="0.7"></path>
            <path d="M80,20 C82.761,20 85,22.239 85,25 C85,27.761 82.761,30 80,30 C77.239,30 75,27.761 75,25 C75,22.239 77.239,20 80,20 Z M50,20 C52.761,20 55,22.239 55,25 C55,27.761 52.761,30 50,30 C47.239,30 45,27.761 45,25 C45,22.239 47.239,20 50,20 Z M20,20 C22.761,20 25,22.239 25,25 C25,27.761 22.761,30 20,30 C17.239,30 15,27.761 15,25 C15,22.239 17.239,20 20,20 Z" id="Combined-Shape" fill="#FF8B5E"></path>
        </g>
    </g>
</svg>
